<svg xmlns="http://www.w3.org/2000/svg" width="10.616" height="12.237"><g fill="#2065bb"><path d="M8.109 1.362v-.92a.443.443 0 0 0-.885 0v.885H3.391V.442a.443.443 0 0 0-.885 0v.92A2.505 2.505 0 0 0 .024 3.869a.3.3 0 0 0 .295.313h9.979a.293.293 0 0 0 .295-.313 2.505 2.505 0 0 0-2.484-2.507Z" data-name="Path 10"/><path d="M10.026 5.066a.591.591 0 0 1 .59.59v3.633a2.645 2.645 0 0 1-2.949 2.949H2.949A2.645 2.645 0 0 1 0 9.289V5.656a.591.591 0 0 1 .59-.59Z" data-name="Path 11" opacity=".4"/><path d="M3.244 8.109a.592.592 0 0 1-.419-1.008.589.589 0 0 1 .643-.124.55.55 0 0 1 .195.124.59.59 0 0 1-.419 1.008Z" data-name="Path 12"/><path d="M5.308 8.109a.592.592 0 0 1-.419-1.008.55.55 0 0 1 .195-.124.589.589 0 0 1 .643.124.6.6 0 0 1 0 .837l-.088.071a.447.447 0 0 1-.106.053.375.375 0 0 1-.106.035.8.8 0 0 1-.119.012Z" data-name="Path 13"/><path d="M7.372 8.11a.592.592 0 0 1-.419-1.008.609.609 0 0 1 .195-.124.564.564 0 0 1 .342-.035.375.375 0 0 1 .106.035.447.447 0 0 1 .106.053l.088.071a.6.6 0 0 1 0 .837l-.088.071a.447.447 0 0 1-.106.053.375.375 0 0 1-.106.035.886.886 0 0 1-.118.012Z" data-name="Path 14"/><path d="M3.244 10.174a.587.587 0 0 1-.224-.047.609.609 0 0 1-.195-.124.6.6 0 0 1 0-.837.609.609 0 0 1 .195-.124.564.564 0 0 1 .342-.035.375.375 0 0 1 .106.035.447.447 0 0 1 .106.053l.088.071a.6.6 0 0 1 0 .837.929.929 0 0 1-.088.071.447.447 0 0 1-.106.053.375.375 0 0 1-.106.035.8.8 0 0 1-.118.012Z" data-name="Path 15"/><path d="M5.308 10.173a.584.584 0 1 1 .419-.171.62.62 0 0 1-.419.171Z" data-name="Path 16"/><path d="M7.372 10.173a.584.584 0 1 1 .419-.171.62.62 0 0 1-.419.171Z" data-name="Path 17"/></g></svg>