<svg xmlns="http://www.w3.org/2000/svg" width="30" height="22.857"><path fill="#fff" d="M25.435 1.931a.077.077 0 0 0-.039-.036A24.748 24.748 0 0 0 19.29.001a.093.093 0 0 0-.1.046 17.217 17.217 0 0 0-.76 1.561 22.85 22.85 0 0 0-6.858 0A15.8 15.8 0 0 0 10.8.047a.1.1 0 0 0-.1-.046 24.678 24.678 0 0 0-6.1 1.894.087.087 0 0 0-.04.034A25.3 25.3 0 0 0 .124 19.001a.1.1 0 0 0 .039.07 24.881 24.881 0 0 0 7.491 3.785.1.1 0 0 0 .105-.034 17.766 17.766 0 0 0 1.533-2.492.095.095 0 0 0-.052-.132 16.386 16.386 0 0 1-2.34-1.115.1.1 0 0 1-.009-.159c.157-.118.315-.24.465-.364a.093.093 0 0 1 .1-.013 17.748 17.748 0 0 0 15.077 0 .092.092 0 0 1 .1.012c.15.124.308.248.466.365a.1.1 0 0 1-.008.159 15.378 15.378 0 0 1-2.341 1.114.1.1 0 0 0-.051.133 19.951 19.951 0 0 0 1.531 2.491.1.1 0 0 0 .105.036 24.8 24.8 0 0 0 7.5-3.785.1.1 0 0 0 .036-.071 25.134 25.134 0 0 0-4.436-17.07Zm-15.41 13.66a3.042 3.042 0 0 1 0-6.045 3.042 3.042 0 0 1 0 6.045Zm9.968 0a3.042 3.042 0 0 1 0-6.045 3.042 3.042 0 0 1 0 6.045Z"/></svg>