<svg xmlns="http://www.w3.org/2000/svg" width="30" height="29.993"><path fill="#fff" d="M15.003 7.307a7.69 7.69 0 1 0 7.69 7.69 7.678 7.678 0 0 0-7.69-7.69Zm0 12.689a5 5 0 1 1 5-5 5.009 5.009 0 0 1-5 5Zm9.8-13a1.794 1.794 0 1 1-1.794-1.794 1.789 1.789 0 0 1 1.792 1.79Zm5.093 1.82a8.876 8.876 0 0 0-2.421-6.288A8.935 8.935 0 0 0 21.191.105c-2.476-.141-9.9-.141-12.375 0a8.922 8.922 0 0 0-6.284 2.416A8.9 8.9 0 0 0 .105 8.806c-.141 2.476-.141 9.9 0 12.375a8.876 8.876 0 0 0 2.423 6.284 8.946 8.946 0 0 0 6.284 2.423c2.476.141 9.9.141 12.375 0a8.876 8.876 0 0 0 6.288-2.423 8.935 8.935 0 0 0 2.423-6.284c.141-2.476.141-9.892 0-12.368Zm-3.2 15.025a5.062 5.062 0 0 1-2.851 2.851c-1.974.783-6.659.6-8.841.6s-6.873.174-8.841-.6a5.061 5.061 0 0 1-2.851-2.851c-.783-1.974-.6-6.659-.6-8.841s-.174-6.873.6-8.841a5.062 5.062 0 0 1 2.85-2.854c1.974-.783 6.659-.6 8.841-.6s6.873-.174 8.841.6a5.062 5.062 0 0 1 2.851 2.851c.783 1.974.6 6.659.6 8.841s.18 6.878-.6 8.841Z"/></svg>