<?xml version="1.0" encoding="utf-8"?>
<!-- Generator: Adobe Illustrator 27.1.1, SVG Export Plug-In . SVG Version: 6.00 Build 0)  -->
<svg version="1.1" id="Layer_1" xmlns="http://www.w3.org/2000/svg" xmlns:xlink="http://www.w3.org/1999/xlink" x="0px" y="0px"
	 viewBox="0 0 512 512" style="enable-background:new 0 0 512 512;" xml:space="preserve">
<style type="text/css">
	.st0{fill:#2065BB;}
</style>
<path class="st0" d="M384,490.7H128c-11.8,0-21.3-9.6-21.3-21.3S116.2,448,128,448h256c11.8,0,21.3,9.6,21.3,21.3
	S395.8,490.7,384,490.7z M490.7,128v170.7c0,58.9-47.8,106.7-106.7,106.7H128c-58.9,0-106.7-47.8-106.7-106.7V128
	C21.3,69.1,69.1,21.3,128,21.3h256C442.9,21.3,490.7,69.1,490.7,128z M106.7,170.7c0,11.8,9.6,21.3,21.3,21.3h128
	c11.8,0,21.3-9.6,21.3-21.3c0-11.8-9.6-21.3-21.3-21.3H128C116.2,149.3,106.7,158.9,106.7,170.7z M405.3,256
	c0-11.8-9.6-21.3-21.3-21.3H128c-11.8,0-21.3,9.6-21.3,21.3c0,11.8,9.6,21.3,21.3,21.3h256C395.8,277.3,405.3,267.8,405.3,256z"/>
</svg>
